# xmcd
#
# Track frame offsets:
#   150
#   11273
#   27218
#   36268
#   52560
#   62575
#   76478
#   91604
#   107766
#   117087
#   138649
#   147866
#   159931
#
# Disc length: 2391 seconds
#
# Revision: 0
# Processed by: cddbd v1.5.2PL0 Copyright (c) Steve Scherf et al.
# Submitted via: GXTranscoder 2.24.2980
#
DISCID=9309550d
DTITLE=a-live - In the Snow
DYEAR=2005
DGENRE=Blues
TTITLE0=AIG Private Bank Song
TTITLE1=Last Christmas
TTITLE2=Let it Snow
TTITLE3=White Christmas
TTITLE4=Winterland Wonderland
TTITLE5=Blue Christmas
TTITLE6=Feel the Spirit
TTITLE7=Prayer of the Children
TTITLE8=Jingle Bell Rock
TTITLE9=Come Home
TTITLE10=Santa Claus is Coming to Town
TTITLE11=A Wish for You
TTITLE12=We are the World
EXTD=
EXTT0=
EXTT1=
EXTT2=
EXTT3=
EXTT4=
EXTT5=
EXTT6=
EXTT7=
EXTT8=
EXTT9=
EXTT10=
EXTT11=
EXTT12=
PLAYORDER=
